<svg width="23" height="22" viewBox="0 0 23 22" fill="none" xmlns="http://www.w3.org/2000/svg">
<path d="M11.937 21.738C10.281 21.738 8.77833 21.4697 7.429 20.933C6.07967 20.4117 4.91433 19.6757 3.933 18.725C2.967 17.7743 2.21567 16.655 1.679 15.367C1.15767 14.079 0.897 12.676 0.897 11.158C0.897 9.65533 1.15767 8.26767 1.679 6.995C2.21567 5.72233 2.97467 4.61067 3.956 3.66C4.93733 2.70933 6.11033 1.97333 7.475 1.452C8.83967 0.930666 10.3577 0.669999 12.029 0.669999C13.639 0.669999 15.111 0.922999 16.445 1.429C17.779 1.91967 18.929 2.61733 19.895 3.522C20.861 4.42667 21.6047 5.49233 22.126 6.719C22.6473 7.93033 22.908 9.25667 22.908 10.698C22.908 12.0627 22.7087 13.228 22.31 14.194C21.9267 15.16 21.3823 15.896 20.677 16.402C19.9717 16.908 19.1437 17.161 18.193 17.161C17.1503 17.161 16.3223 16.8543 15.709 16.241C15.0957 15.6277 14.789 14.7307 14.789 13.55V12.492L14.858 11.25L14.651 7.915V5.707H17.779V13.159C17.779 13.711 17.8863 14.0943 18.101 14.309C18.3157 14.5237 18.5763 14.631 18.883 14.631C19.2357 14.631 19.5347 14.493 19.78 14.217C20.0407 13.941 20.24 13.5193 20.378 12.952C20.516 12.3693 20.585 11.6333 20.585 10.744C20.585 9.57867 20.378 8.513 19.964 7.547C19.5653 6.581 18.9827 5.74533 18.216 5.04C17.4647 4.33467 16.56 3.798 15.502 3.43C14.4593 3.04667 13.3017 2.855 12.029 2.855C10.7563 2.855 9.591 3.062 8.533 3.476C7.475 3.89 6.57033 4.47267 5.819 5.224C5.06767 5.96 4.485 6.834 4.071 7.846C3.67233 8.858 3.473 9.962 3.473 11.158C3.473 12.3847 3.67233 13.5117 4.071 14.539C4.46967 15.551 5.037 16.425 5.773 17.161C6.52433 17.9123 7.42133 18.495 8.464 18.909C9.50667 19.323 10.6643 19.53 11.937 19.53C12.673 19.53 13.432 19.4457 14.214 19.277C14.996 19.1237 15.7473 18.8707 16.468 18.518L17.204 20.634C16.4987 20.9867 15.6707 21.255 14.72 21.439C13.7847 21.6383 12.857 21.738 11.937 21.738ZM11.109 17.161C10.1277 17.161 9.23067 16.9233 8.418 16.448C7.62067 15.9573 6.98433 15.275 6.509 14.401C6.03367 13.5117 5.796 12.492 5.796 11.342C5.796 10.192 6.026 9.18 6.486 8.306C6.96133 7.432 7.59767 6.75733 8.395 6.282C9.20767 5.79133 10.1123 5.546 11.109 5.546C12.121 5.546 12.9873 5.776 13.708 6.236C14.4287 6.696 14.9807 7.35533 15.364 8.214C15.7473 9.07267 15.939 10.1153 15.939 11.342C15.939 12.5533 15.755 13.596 15.387 14.47C15.019 15.344 14.4747 16.011 13.754 16.471C13.0487 16.931 12.167 17.161 11.109 17.161ZM11.822 14.516C12.374 14.516 12.8647 14.3933 13.294 14.148C13.7387 13.8873 14.0837 13.5193 14.329 13.044C14.5743 12.5687 14.697 12.0013 14.697 11.342C14.697 10.6673 14.5743 10.1 14.329 9.64C14.0837 9.18 13.7387 8.82733 13.294 8.582C12.8647 8.33667 12.374 8.214 11.822 8.214C11.27 8.214 10.7793 8.33667 10.35 8.582C9.92067 8.82733 9.58333 9.18767 9.338 9.663C9.09267 10.123 8.97 10.6827 8.97 11.342C8.97 12.0013 9.09267 12.5687 9.338 13.044C9.58333 13.504 9.92067 13.8643 10.35 14.125C10.7793 14.3857 11.27 14.516 11.822 14.516Z" fill="#070648"/>
</svg>
