<svg width="26" height="26" viewBox="0 0 26 26" fill="none" xmlns="http://www.w3.org/2000/svg">
<mask id="path-1-outside-1_103_423" maskUnits="userSpaceOnUse" x="0" y="0" width="26" height="26" fill="black">
<rect fill="white" width="26" height="26"/>
<path fill-rule="evenodd" clip-rule="evenodd" d="M16 2H10V10H2V16H10V24H16V16H24V10H16V2Z"/>
</mask>
<path fill-rule="evenodd" clip-rule="evenodd" d="M16 2H10V10H2V16H10V24H16V16H24V10H16V2Z" fill="#F86841"/>
<path d="M10 2V0H8V2H10ZM16 2H18V0H16V2ZM10 10V12H12V10H10ZM2 10V8H0V10H2ZM2 16H0V18H2V16ZM10 16H12V14H10V16ZM10 24H8V26H10V24ZM16 24V26H18V24H16ZM16 16V14H14V16H16ZM24 16V18H26V16H24ZM24 10H26V8H24V10ZM16 10H14V12H16V10ZM10 4H16V0H10V4ZM12 10V2H8V10H12ZM2 12H10V8H2V12ZM4 16V10H0V16H4ZM10 14H2V18H10V14ZM12 24V16H8V24H12ZM16 22H10V26H16V22ZM14 16V24H18V16H14ZM24 14H16V18H24V14ZM22 10V16H26V10H22ZM16 12H24V8H16V12ZM14 2V10H18V2H14Z" fill="#F03300" mask="url(#path-1-outside-1_103_423)"/>
</svg>
