<svg width="25" height="25" viewBox="0 0 25 25" fill="none" xmlns="http://www.w3.org/2000/svg">
<path d="M9.51542 21.6389V18.4538C9.51542 17.6407 10.1794 16.9816 10.9984 16.9816H13.9923C14.3856 16.9816 14.7628 17.1367 15.0409 17.4128C15.3191 17.6889 15.4753 18.0634 15.4753 18.4538V21.6389C15.4728 21.977 15.6063 22.302 15.8462 22.5419C16.0861 22.7818 16.4126 22.9167 16.7531 22.9167H18.7957C19.7496 22.9192 20.6654 22.5447 21.3408 21.8759C22.0163 21.2071 22.3959 20.299 22.3959 19.3519V10.278C22.3958 9.51302 22.0543 8.78738 21.4632 8.29657L14.5146 2.7874C13.3059 1.82146 11.5741 1.85265 10.4015 2.86148L3.61149 8.29657C2.99246 8.77291 2.62247 9.5007 2.60419 10.278V19.3427C2.60419 21.3166 4.21604 22.9167 6.20437 22.9167H8.20032C8.90755 22.9167 9.48231 22.3503 9.48743 21.6482L9.51542 21.6389Z" fill="#FFB800" stroke="#FF7A00" stroke-width="2"/>
</svg>
