<svg width="412" height="51" viewBox="0 0 412 51" fill="none" xmlns="http://www.w3.org/2000/svg">
<path fill-rule="evenodd" clip-rule="evenodd" d="M22.7485 9.25C23.4835 9.25 24.0802 9.83517 24.0802 10.5576C24.0802 11.2784 23.4852 11.8635 22.7485 11.8635L19.8977 11.8653C17.5317 11.8687 15.6067 13.7581 15.6067 16.0799V19.3335C15.6067 20.0543 15.0082 20.6411 14.2732 20.6411C13.5382 20.6411 12.9415 20.0543 12.9415 19.3335V16.0799C12.9415 12.3183 16.0617 9.25515 19.896 9.25172L22.7467 9.25H22.7485ZM35.301 9.25051H38.0888C41.9335 9.25051 45.059 12.3154 45.059 16.0855V19.334C45.059 20.0548 44.464 20.6417 43.7273 20.6417C42.9923 20.6417 42.3955 20.0548 42.3955 19.334V16.0855C42.3955 13.7569 40.4635 11.8623 38.0888 11.8623H35.301C34.566 11.8623 33.9693 11.2789 33.9693 10.5581C33.9693 9.83569 34.566 9.25051 35.301 9.25051ZM33.8344 15.7997H24.1674C21.9554 15.822 20.1774 17.5946 20.1966 19.7654V21.9448C20.2019 22.1988 20.4101 22.4064 20.6691 22.415H37.3291C37.5899 22.4082 37.7981 22.2005 37.8069 21.9448V19.7654C37.8086 18.7169 37.3956 17.7096 36.6501 16.9597C35.9099 16.2167 34.8931 15.7997 33.8344 15.7997ZM11.0835 25.0722H46.9183C47.6533 25.0722 48.25 25.6573 48.25 26.3798C48.25 27.1005 47.6533 27.684 46.9183 27.684H45.0597V33.9133C45.0597 37.6851 41.9325 40.75 38.0895 40.75H35.3018C34.565 40.75 33.9683 40.1648 33.9683 39.4424C33.9683 38.7216 34.565 38.1365 35.3018 38.1365H38.0895C40.4643 38.1365 42.3963 36.2437 42.3963 33.9133V27.684H37.806V29.4189C37.8235 31.5897 36.0473 33.3641 33.8335 33.3847H24.1665C21.9545 33.3641 20.1782 31.5897 20.1957 29.4189V27.684H15.6055V33.9201C15.6055 36.2419 17.5323 38.1313 19.9 38.1347L22.749 38.1365C23.484 38.1365 24.0808 38.7216 24.0808 39.4424C24.079 40.1648 23.484 40.75 22.7472 40.75L19.8965 40.7483C16.0622 40.7449 12.9402 37.6817 12.9402 33.9201V27.684H11.0835C10.3485 27.684 9.75 27.1005 9.75 26.3798C9.75 25.6573 10.3485 25.0722 11.0835 25.0722Z" fill="#070648"/>
<path d="M58.128 22.544H61.072V32H62.976V22.544H65.936V20.8H58.128V22.544ZM65.0128 28.32C65.0128 29.0667 65.1834 29.7333 65.5247 30.32C65.8768 30.896 66.3514 31.3493 66.9488 31.68C67.5461 32 68.2234 32.16 68.9808 32.16C69.7381 32.16 70.4101 32 70.9968 31.68C71.5941 31.3493 72.0688 30.896 72.4208 30.32C72.7728 29.7333 72.9488 29.0667 72.9488 28.32C72.9488 27.5627 72.7728 26.896 72.4208 26.32C72.0688 25.744 71.5941 25.296 70.9968 24.976C70.4101 24.6453 69.7381 24.48 68.9808 24.48C68.2234 24.48 67.5461 24.6453 66.9488 24.976C66.3514 25.296 65.8768 25.744 65.5247 26.32C65.1834 26.896 65.0128 27.5627 65.0128 28.32ZM66.7888 28.32C66.7888 27.8613 66.8848 27.456 67.0768 27.104C67.2688 26.752 67.5301 26.48 67.8608 26.288C68.1914 26.096 68.5648 26 68.9808 26C69.3861 26 69.7541 26.096 70.0848 26.288C70.4261 26.48 70.6928 26.752 70.8848 27.104C71.0768 27.456 71.1728 27.8613 71.1728 28.32C71.1728 28.7787 71.0768 29.184 70.8848 29.536C70.6928 29.8773 70.4261 30.1493 70.0848 30.352C69.7541 30.544 69.3861 30.64 68.9808 30.64C68.5648 30.64 68.1914 30.544 67.8608 30.352C67.5301 30.1493 67.2688 29.8773 67.0768 29.536C66.8848 29.184 66.7888 28.7787 66.7888 28.32ZM81.0653 35.52V24.64H79.3213V35.52H81.0653ZM87.1613 28.32C87.1613 27.4987 86.9959 26.8 86.6653 26.224C86.3346 25.648 85.8973 25.2107 85.3533 24.912C84.8093 24.6027 84.2173 24.448 83.5773 24.448C82.9479 24.448 82.3986 24.608 81.9293 24.928C81.4706 25.2373 81.1133 25.68 80.8573 26.256C80.6119 26.832 80.4893 27.52 80.4893 28.32C80.4893 29.1093 80.6119 29.7973 80.8573 30.384C81.1133 30.96 81.4706 31.408 81.9293 31.728C82.3986 32.0373 82.9479 32.192 83.5773 32.192C84.2173 32.192 84.8093 32.0427 85.3533 31.744C85.8973 31.4347 86.3346 30.992 86.6653 30.416C86.9959 29.8293 87.1613 29.1307 87.1613 28.32ZM85.3693 28.32C85.3693 28.8107 85.2679 29.232 85.0653 29.584C84.8626 29.9253 84.5906 30.1867 84.2493 30.368C83.9186 30.5387 83.5506 30.624 83.1453 30.624C82.8146 30.624 82.4893 30.5387 82.1693 30.368C81.8493 30.1867 81.5826 29.9253 81.3693 29.584C81.1666 29.2427 81.0653 28.8213 81.0653 28.32C81.0653 27.8187 81.1666 27.3973 81.3693 27.056C81.5826 26.7147 81.8493 26.4587 82.1693 26.288C82.4893 26.1067 82.8146 26.016 83.1453 26.016C83.5506 26.016 83.9186 26.1067 84.2493 26.288C84.5906 26.4587 84.8626 26.72 85.0653 27.072C85.2679 27.4133 85.3693 27.8293 85.3693 28.32ZM90.5191 24.64H88.8071V32H90.5191V24.64ZM92.7111 26.48L93.5431 25.024C93.3831 24.8213 93.1858 24.6827 92.9511 24.608C92.7165 24.5227 92.4658 24.48 92.1991 24.48C91.8258 24.48 91.4631 24.6133 91.1111 24.88C90.7698 25.1467 90.4871 25.5093 90.2631 25.968C90.0498 26.416 89.9431 26.9333 89.9431 27.52L90.5191 27.856C90.5191 27.504 90.5565 27.2 90.6311 26.944C90.7165 26.6773 90.8498 26.4693 91.0311 26.32C91.2125 26.1707 91.4471 26.096 91.7351 26.096C91.9485 26.096 92.1245 26.128 92.2631 26.192C92.4018 26.256 92.5511 26.352 92.7111 26.48ZM94.665 21.712C94.665 22 94.7717 22.2507 94.985 22.464C95.209 22.6667 95.465 22.768 95.753 22.768C96.0623 22.768 96.3183 22.6667 96.521 22.464C96.7343 22.2507 96.841 22 96.841 21.712C96.841 21.4133 96.7343 21.1627 96.521 20.96C96.3183 20.7573 96.0623 20.656 95.753 20.656C95.465 20.656 95.209 20.7573 94.985 20.96C94.7717 21.1627 94.665 21.4133 94.665 21.712ZM94.905 24.64V32H96.601V24.64H94.905ZM103.715 27.52V32H105.491V27.328C105.491 26.4427 105.272 25.7493 104.835 25.248C104.398 24.736 103.763 24.48 102.931 24.48C102.419 24.48 101.976 24.5867 101.603 24.8C101.24 25.0133 100.942 25.3387 100.707 25.776V24.64H98.979V32H100.707V27.52C100.707 27.1893 100.776 26.9013 100.915 26.656C101.054 26.4 101.246 26.208 101.491 26.08C101.736 25.9413 102.019 25.872 102.339 25.872C102.808 25.872 103.155 26.0107 103.379 26.288C103.603 26.5653 103.715 26.976 103.715 27.52ZM106.674 24.64V26.16H110.85V24.64H106.674ZM107.906 22.08V32H109.618V22.08H107.906ZM113.13 30.24L111.722 34.384L113.002 34.736L114.858 30.736L113.13 30.24ZM122.206 29.584L121.198 30.592C121.411 30.8693 121.672 31.136 121.982 31.392C122.302 31.6373 122.67 31.84 123.086 32C123.512 32.1493 123.976 32.224 124.478 32.224C125.288 32.224 125.928 32.016 126.398 31.6C126.878 31.1733 127.118 30.6133 127.118 29.92C127.118 29.472 127.011 29.1093 126.798 28.832C126.595 28.5547 126.323 28.32 125.982 28.128C125.64 27.936 125.267 27.76 124.862 27.6C124.563 27.4827 124.291 27.3707 124.046 27.264C123.811 27.1573 123.619 27.04 123.47 26.912C123.331 26.7733 123.262 26.6187 123.262 26.448C123.262 26.2453 123.342 26.0907 123.502 25.984C123.662 25.8773 123.864 25.824 124.11 25.824C124.472 25.824 124.824 25.9147 125.166 26.096C125.507 26.2773 125.8 26.512 126.046 26.8L127.006 25.776C126.803 25.5307 126.558 25.312 126.27 25.12C125.982 24.928 125.656 24.7733 125.294 24.656C124.942 24.5387 124.563 24.48 124.158 24.48C123.71 24.48 123.288 24.5547 122.894 24.704C122.51 24.8427 122.2 25.0613 121.966 25.36C121.742 25.6587 121.63 26.032 121.63 26.48C121.63 26.9173 121.731 27.28 121.934 27.568C122.147 27.856 122.414 28.0907 122.734 28.272C123.064 28.4427 123.395 28.592 123.726 28.72C124.056 28.8373 124.344 28.9547 124.59 29.072C124.835 29.1787 125.027 29.312 125.166 29.472C125.304 29.6213 125.374 29.8027 125.374 30.016C125.374 30.2613 125.283 30.4533 125.102 30.592C124.931 30.7307 124.691 30.8 124.382 30.8C124.136 30.8 123.891 30.7573 123.646 30.672C123.4 30.576 123.155 30.4373 122.91 30.256C122.675 30.064 122.44 29.84 122.206 29.584ZM129.803 28.32C129.803 27.8613 129.904 27.456 130.107 27.104C130.31 26.752 130.582 26.4747 130.923 26.272C131.275 26.0693 131.664 25.968 132.091 25.968C132.432 25.968 132.763 26.0213 133.083 26.128C133.403 26.2347 133.686 26.384 133.931 26.576C134.187 26.7573 134.374 26.9707 134.491 27.216V25.312C134.235 25.056 133.888 24.8533 133.451 24.704C133.014 24.5547 132.534 24.48 132.011 24.48C131.254 24.48 130.571 24.6453 129.963 24.976C129.366 25.296 128.891 25.744 128.539 26.32C128.198 26.896 128.027 27.5627 128.027 28.32C128.027 29.0667 128.198 29.7333 128.539 30.32C128.891 30.896 129.366 31.3493 129.963 31.68C130.571 32 131.254 32.16 132.011 32.16C132.534 32.16 133.014 32.0853 133.451 31.936C133.888 31.7867 134.235 31.584 134.491 31.328V29.424C134.374 29.6587 134.192 29.872 133.947 30.064C133.702 30.256 133.419 30.4053 133.099 30.512C132.779 30.6187 132.443 30.672 132.091 30.672C131.664 30.672 131.275 30.5707 130.923 30.368C130.582 30.1653 130.31 29.8933 130.107 29.552C129.904 29.2 129.803 28.7893 129.803 28.32ZM137.489 29.712C137.489 29.4773 137.542 29.28 137.649 29.12C137.766 28.96 137.937 28.8373 138.161 28.752C138.385 28.656 138.678 28.608 139.041 28.608C139.457 28.608 139.852 28.6613 140.225 28.768C140.598 28.8747 140.95 29.0453 141.281 29.28V28.4C141.185 28.2827 141.02 28.1547 140.785 28.016C140.55 27.8667 140.252 27.7387 139.889 27.632C139.537 27.5253 139.116 27.472 138.625 27.472C137.708 27.472 136.998 27.6853 136.497 28.112C135.996 28.528 135.745 29.0933 135.745 29.808C135.745 30.3093 135.862 30.736 136.097 31.088C136.332 31.44 136.646 31.7067 137.041 31.888C137.436 32.0693 137.862 32.16 138.321 32.16C138.748 32.16 139.164 32.0853 139.569 31.936C139.985 31.776 140.326 31.5413 140.593 31.232C140.87 30.912 141.009 30.5173 141.009 30.048L140.753 29.088C140.753 29.4507 140.662 29.7707 140.481 30.048C140.31 30.3147 140.081 30.5173 139.793 30.656C139.516 30.7947 139.206 30.864 138.865 30.864C138.598 30.864 138.358 30.8213 138.145 30.736C137.942 30.6507 137.782 30.5227 137.665 30.352C137.548 30.1707 137.489 29.9573 137.489 29.712ZM136.945 26.56C137.052 26.4853 137.212 26.3947 137.425 26.288C137.649 26.1707 137.91 26.0747 138.209 26C138.518 25.9147 138.844 25.872 139.185 25.872C139.409 25.872 139.617 25.8933 139.809 25.936C140.001 25.9787 140.166 26.048 140.305 26.144C140.444 26.24 140.55 26.3627 140.625 26.512C140.71 26.6613 140.753 26.8533 140.753 27.088V32H142.449V26.752C142.449 26.2613 142.316 25.8507 142.049 25.52C141.782 25.1787 141.414 24.9173 140.945 24.736C140.486 24.5547 139.953 24.464 139.345 24.464C138.662 24.464 138.054 24.56 137.521 24.752C136.998 24.944 136.572 25.1413 136.241 25.344L136.945 26.56ZM149.199 27.52V32H150.975V27.328C150.975 26.4427 150.757 25.7493 150.319 25.248C149.882 24.736 149.247 24.48 148.415 24.48C147.903 24.48 147.461 24.5867 147.087 24.8C146.725 25.0133 146.426 25.3387 146.191 25.776V24.64H144.463V32H146.191V27.52C146.191 27.1893 146.261 26.9013 146.399 26.656C146.538 26.4 146.73 26.208 146.975 26.08C147.221 25.9413 147.503 25.872 147.823 25.872C148.293 25.872 148.639 26.0107 148.863 26.288C149.087 26.5653 149.199 26.976 149.199 27.52ZM156.955 24.64V26.16H161.131V24.64H156.955ZM158.187 22.08V32H159.899V22.08H158.187ZM164.051 19.52H162.323V32H164.051V19.52ZM167.059 27.52V32H168.803V27.28C168.803 26.6507 168.707 26.128 168.515 25.712C168.323 25.2853 168.035 24.9653 167.651 24.752C167.277 24.5387 166.819 24.432 166.275 24.432C165.72 24.432 165.245 24.5707 164.851 24.848C164.467 25.1253 164.168 25.4933 163.955 25.952C163.741 26.4107 163.635 26.9333 163.635 27.52H164.051C164.051 27.1893 164.12 26.9013 164.259 26.656C164.397 26.4107 164.589 26.2187 164.835 26.08C165.08 25.9413 165.363 25.872 165.683 25.872C166.163 25.872 166.509 26.0107 166.723 26.288C166.947 26.5653 167.059 26.976 167.059 27.52ZM174.195 32.16C175.048 32.16 175.779 31.9947 176.387 31.664C176.995 31.3333 177.491 30.8373 177.875 30.176L176.387 29.568C176.152 29.9627 175.859 30.256 175.507 30.448C175.155 30.64 174.744 30.736 174.275 30.736C173.827 30.736 173.443 30.64 173.123 30.448C172.813 30.256 172.579 29.9787 172.419 29.616C172.259 29.2427 172.179 28.7893 172.179 28.256C172.189 27.7227 172.275 27.2747 172.435 26.912C172.595 26.5493 172.829 26.272 173.139 26.08C173.448 25.888 173.821 25.792 174.259 25.792C174.621 25.792 174.936 25.872 175.203 26.032C175.48 26.192 175.693 26.416 175.843 26.704C176.003 26.992 176.083 27.3333 176.083 27.728C176.083 27.8027 176.061 27.8987 176.019 28.016C175.987 28.1227 175.955 28.208 175.923 28.272L176.451 27.536H171.459V28.72H177.923C177.933 28.6773 177.939 28.608 177.939 28.512C177.949 28.416 177.955 28.3253 177.955 28.24C177.955 27.4507 177.805 26.7787 177.507 26.224C177.219 25.6587 176.803 25.2267 176.259 24.928C175.715 24.6293 175.053 24.48 174.275 24.48C173.496 24.48 172.819 24.64 172.243 24.96C171.667 25.2693 171.219 25.712 170.899 26.288C170.589 26.864 170.435 27.5413 170.435 28.32C170.435 29.088 170.589 29.76 170.899 30.336C171.208 30.912 171.645 31.36 172.211 31.68C172.787 32 173.448 32.16 174.195 32.16ZM185.905 26.4C185.905 25.632 186.07 24.9493 186.401 24.352C186.732 23.744 187.185 23.2693 187.761 22.928C188.337 22.5867 188.993 22.416 189.729 22.416C190.518 22.416 191.201 22.5973 191.777 22.96C192.364 23.3227 192.822 23.8133 193.153 24.432C193.484 25.0507 193.649 25.744 193.649 26.512C193.649 27.28 193.484 27.9627 193.153 28.56C192.822 29.1573 192.369 29.6267 191.793 29.968C191.217 30.2987 190.556 30.464 189.809 30.464C189.073 30.464 188.406 30.2933 187.809 29.952C187.222 29.6 186.758 29.12 186.417 28.512C186.076 27.904 185.905 27.2 185.905 26.4ZM183.905 26.4C183.905 27.232 184.049 28.0053 184.337 28.72C184.625 29.4347 185.03 30.0533 185.553 30.576C186.076 31.0987 186.694 31.5093 187.409 31.808C188.124 32.096 188.897 32.24 189.729 32.24C190.582 32.24 191.361 32.096 192.065 31.808C192.769 31.5093 193.377 31.0987 193.889 30.576C194.412 30.0533 194.817 29.4347 195.105 28.72C195.393 28.0053 195.537 27.232 195.537 26.4C195.537 25.5573 195.393 24.784 195.105 24.08C194.817 23.376 194.412 22.768 193.889 22.256C193.366 21.7333 192.753 21.328 192.049 21.04C191.345 20.752 190.572 20.608 189.729 20.608C188.908 20.608 188.14 20.752 187.425 21.04C186.721 21.328 186.102 21.7333 185.569 22.256C185.046 22.768 184.636 23.376 184.337 24.08C184.049 24.784 183.905 25.5573 183.905 26.4ZM189.217 27.2L194.209 32.08H196.433L191.393 27.2H189.217ZM199.958 26.656L203.526 32H205.798L202.006 26.656H199.958ZM197.654 20.8V32H199.542V20.8H197.654ZM198.774 22.432H201.03C201.457 22.432 201.83 22.5067 202.15 22.656C202.481 22.8053 202.737 23.0187 202.918 23.296C203.1 23.5733 203.19 23.9147 203.19 24.32C203.19 24.7147 203.1 25.056 202.918 25.344C202.737 25.6213 202.481 25.8347 202.15 25.984C201.83 26.1333 201.457 26.208 201.03 26.208H198.774V27.76H201.11C201.921 27.76 202.625 27.616 203.222 27.328C203.83 27.04 204.3 26.6347 204.63 26.112C204.961 25.5893 205.126 24.976 205.126 24.272C205.126 23.568 204.961 22.96 204.63 22.448C204.3 21.9253 203.83 21.52 203.222 21.232C202.625 20.944 201.921 20.8 201.11 20.8H198.774V22.432ZM212.975 28.32C212.975 27.8613 213.076 27.456 213.279 27.104C213.481 26.752 213.753 26.4747 214.095 26.272C214.447 26.0693 214.836 25.968 215.263 25.968C215.604 25.968 215.935 26.0213 216.255 26.128C216.575 26.2347 216.857 26.384 217.103 26.576C217.359 26.7573 217.545 26.9707 217.663 27.216V25.312C217.407 25.056 217.06 24.8533 216.623 24.704C216.185 24.5547 215.705 24.48 215.183 24.48C214.425 24.48 213.743 24.6453 213.135 24.976C212.537 25.296 212.063 25.744 211.711 26.32C211.369 26.896 211.199 27.5627 211.199 28.32C211.199 29.0667 211.369 29.7333 211.711 30.32C212.063 30.896 212.537 31.3493 213.135 31.68C213.743 32 214.425 32.16 215.183 32.16C215.705 32.16 216.185 32.0853 216.623 31.936C217.06 31.7867 217.407 31.584 217.663 31.328V29.424C217.545 29.6587 217.364 29.872 217.119 30.064C216.873 30.256 216.591 30.4053 216.271 30.512C215.951 30.6187 215.615 30.672 215.263 30.672C214.836 30.672 214.447 30.5707 214.095 30.368C213.753 30.1653 213.481 29.8933 213.279 29.552C213.076 29.2 212.975 28.7893 212.975 28.32ZM219.013 28.32C219.013 29.0667 219.183 29.7333 219.525 30.32C219.877 30.896 220.351 31.3493 220.949 31.68C221.546 32 222.223 32.16 222.981 32.16C223.738 32.16 224.41 32 224.997 31.68C225.594 31.3493 226.069 30.896 226.421 30.32C226.773 29.7333 226.949 29.0667 226.949 28.32C226.949 27.5627 226.773 26.896 226.421 26.32C226.069 25.744 225.594 25.296 224.997 24.976C224.41 24.6453 223.738 24.48 222.981 24.48C222.223 24.48 221.546 24.6453 220.949 24.976C220.351 25.296 219.877 25.744 219.525 26.32C219.183 26.896 219.013 27.5627 219.013 28.32ZM220.789 28.32C220.789 27.8613 220.885 27.456 221.077 27.104C221.269 26.752 221.53 26.48 221.861 26.288C222.191 26.096 222.565 26 222.981 26C223.386 26 223.754 26.096 224.085 26.288C224.426 26.48 224.693 26.752 224.885 27.104C225.077 27.456 225.173 27.8613 225.173 28.32C225.173 28.7787 225.077 29.184 224.885 29.536C224.693 29.8773 224.426 30.1493 224.085 30.352C223.754 30.544 223.386 30.64 222.981 30.64C222.565 30.64 222.191 30.544 221.861 30.352C221.53 30.1493 221.269 29.8773 221.077 29.536C220.885 29.184 220.789 28.7787 220.789 28.32ZM234.124 19.52V32H235.868V19.52H234.124ZM228.028 28.32C228.028 29.12 228.194 29.808 228.524 30.384C228.855 30.96 229.292 31.4027 229.836 31.712C230.391 32.0107 230.983 32.16 231.612 32.16C232.231 32.16 232.77 32.0053 233.228 31.696C233.698 31.3867 234.066 30.944 234.332 30.368C234.61 29.792 234.748 29.1093 234.748 28.32C234.748 27.52 234.61 26.8373 234.332 26.272C234.066 25.696 233.698 25.2533 233.228 24.944C232.77 24.6347 232.231 24.48 231.612 24.48C230.983 24.48 230.391 24.6347 229.836 24.944C229.292 25.2427 228.855 25.68 228.524 26.256C228.194 26.8213 228.028 27.5093 228.028 28.32ZM229.82 28.32C229.82 27.8293 229.922 27.408 230.124 27.056C230.327 26.704 230.594 26.4373 230.924 26.256C231.266 26.0747 231.634 25.984 232.028 25.984C232.359 25.984 232.684 26.0747 233.004 26.256C233.335 26.4373 233.602 26.704 233.804 27.056C234.018 27.3973 234.124 27.8187 234.124 28.32C234.124 28.8213 234.018 29.248 233.804 29.6C233.602 29.9413 233.335 30.2027 233.004 30.384C232.684 30.5653 232.359 30.656 232.028 30.656C231.634 30.656 231.266 30.5653 230.924 30.384C230.594 30.2027 230.327 29.936 230.124 29.584C229.922 29.232 229.82 28.8107 229.82 28.32ZM241.21 32.16C242.064 32.16 242.794 31.9947 243.402 31.664C244.01 31.3333 244.506 30.8373 244.89 30.176L243.402 29.568C243.168 29.9627 242.874 30.256 242.522 30.448C242.17 30.64 241.76 30.736 241.29 30.736C240.842 30.736 240.458 30.64 240.138 30.448C239.829 30.256 239.594 29.9787 239.434 29.616C239.274 29.2427 239.194 28.7893 239.194 28.256C239.205 27.7227 239.29 27.2747 239.45 26.912C239.61 26.5493 239.845 26.272 240.154 26.08C240.464 25.888 240.837 25.792 241.274 25.792C241.637 25.792 241.952 25.872 242.218 26.032C242.496 26.192 242.709 26.416 242.858 26.704C243.018 26.992 243.098 27.3333 243.098 27.728C243.098 27.8027 243.077 27.8987 243.034 28.016C243.002 28.1227 242.97 28.208 242.938 28.272L243.466 27.536H238.474V28.72H244.938C244.949 28.6773 244.954 28.608 244.954 28.512C244.965 28.416 244.97 28.3253 244.97 28.24C244.97 27.4507 244.821 26.7787 244.522 26.224C244.234 25.6587 243.818 25.2267 243.274 24.928C242.73 24.6293 242.069 24.48 241.29 24.48C240.512 24.48 239.834 24.64 239.258 24.96C238.682 25.2693 238.234 25.712 237.914 26.288C237.605 26.864 237.45 27.5413 237.45 28.32C237.45 29.088 237.605 29.76 237.914 30.336C238.224 30.912 238.661 31.36 239.226 31.68C239.802 32 240.464 32.16 241.21 32.16ZM251.417 19.52V32H253.145V19.52H251.417ZM254.794 28.32C254.794 29.0667 254.965 29.7333 255.306 30.32C255.658 30.896 256.133 31.3493 256.73 31.68C257.327 32 258.005 32.16 258.762 32.16C259.519 32.16 260.191 32 260.778 31.68C261.375 31.3493 261.85 30.896 262.202 30.32C262.554 29.7333 262.73 29.0667 262.73 28.32C262.73 27.5627 262.554 26.896 262.202 26.32C261.85 25.744 261.375 25.296 260.778 24.976C260.191 24.6453 259.519 24.48 258.762 24.48C258.005 24.48 257.327 24.6453 256.73 24.976C256.133 25.296 255.658 25.744 255.306 26.32C254.965 26.896 254.794 27.5627 254.794 28.32ZM256.57 28.32C256.57 27.8613 256.666 27.456 256.858 27.104C257.05 26.752 257.311 26.48 257.642 26.288C257.973 26.096 258.346 26 258.762 26C259.167 26 259.535 26.096 259.866 26.288C260.207 26.48 260.474 26.752 260.666 27.104C260.858 27.456 260.954 27.8613 260.954 28.32C260.954 28.7787 260.858 29.184 260.666 29.536C260.474 29.8773 260.207 30.1493 259.866 30.352C259.535 30.544 259.167 30.64 258.762 30.64C258.346 30.64 257.973 30.544 257.642 30.352C257.311 30.1493 257.05 29.8773 256.858 29.536C256.666 29.184 256.57 28.7787 256.57 28.32ZM265.522 28.32C265.522 27.8613 265.623 27.456 265.826 27.104C266.028 26.752 266.3 26.4747 266.642 26.272C266.994 26.0693 267.383 25.968 267.81 25.968C268.151 25.968 268.482 26.0213 268.802 26.128C269.122 26.2347 269.404 26.384 269.65 26.576C269.906 26.7573 270.092 26.9707 270.21 27.216V25.312C269.954 25.056 269.607 24.8533 269.17 24.704C268.732 24.5547 268.252 24.48 267.73 24.48C266.972 24.48 266.29 24.6453 265.682 24.976C265.084 25.296 264.61 25.744 264.258 26.32C263.916 26.896 263.746 27.5627 263.746 28.32C263.746 29.0667 263.916 29.7333 264.258 30.32C264.61 30.896 265.084 31.3493 265.682 31.68C266.29 32 266.972 32.16 267.73 32.16C268.252 32.16 268.732 32.0853 269.17 31.936C269.607 31.7867 269.954 31.584 270.21 31.328V29.424C270.092 29.6587 269.911 29.872 269.666 30.064C269.42 30.256 269.138 30.4053 268.818 30.512C268.498 30.6187 268.162 30.672 267.81 30.672C267.383 30.672 266.994 30.5707 266.642 30.368C266.3 30.1653 266.028 29.8933 265.826 29.552C265.623 29.2 265.522 28.7893 265.522 28.32ZM273.208 29.712C273.208 29.4773 273.261 29.28 273.368 29.12C273.485 28.96 273.656 28.8373 273.88 28.752C274.104 28.656 274.397 28.608 274.76 28.608C275.176 28.608 275.57 28.6613 275.944 28.768C276.317 28.8747 276.669 29.0453 277 29.28V28.4C276.904 28.2827 276.738 28.1547 276.504 28.016C276.269 27.8667 275.97 27.7387 275.608 27.632C275.256 27.5253 274.834 27.472 274.344 27.472C273.426 27.472 272.717 27.6853 272.216 28.112C271.714 28.528 271.464 29.0933 271.464 29.808C271.464 30.3093 271.581 30.736 271.816 31.088C272.05 31.44 272.365 31.7067 272.76 31.888C273.154 32.0693 273.581 32.16 274.04 32.16C274.466 32.16 274.882 32.0853 275.288 31.936C275.704 31.776 276.045 31.5413 276.312 31.232C276.589 30.912 276.728 30.5173 276.728 30.048L276.472 29.088C276.472 29.4507 276.381 29.7707 276.2 30.048C276.029 30.3147 275.8 30.5173 275.512 30.656C275.234 30.7947 274.925 30.864 274.584 30.864C274.317 30.864 274.077 30.8213 273.864 30.736C273.661 30.6507 273.501 30.5227 273.384 30.352C273.266 30.1707 273.208 29.9573 273.208 29.712ZM272.664 26.56C272.77 26.4853 272.93 26.3947 273.144 26.288C273.368 26.1707 273.629 26.0747 273.928 26C274.237 25.9147 274.562 25.872 274.904 25.872C275.128 25.872 275.336 25.8933 275.528 25.936C275.72 25.9787 275.885 26.048 276.024 26.144C276.162 26.24 276.269 26.3627 276.344 26.512C276.429 26.6613 276.472 26.8533 276.472 27.088V32H278.168V26.752C278.168 26.2613 278.034 25.8507 277.768 25.52C277.501 25.1787 277.133 24.9173 276.664 24.736C276.205 24.5547 275.672 24.464 275.064 24.464C274.381 24.464 273.773 24.56 273.24 24.752C272.717 24.944 272.29 25.1413 271.96 25.344L272.664 26.56ZM279.158 24.64V26.16H283.334V24.64H279.158ZM280.39 22.08V32H282.102V22.08H280.39ZM287.726 32.16C288.579 32.16 289.31 31.9947 289.918 31.664C290.526 31.3333 291.022 30.8373 291.406 30.176L289.918 29.568C289.683 29.9627 289.39 30.256 289.038 30.448C288.686 30.64 288.275 30.736 287.806 30.736C287.358 30.736 286.974 30.64 286.654 30.448C286.345 30.256 286.11 29.9787 285.95 29.616C285.79 29.2427 285.71 28.7893 285.71 28.256C285.721 27.7227 285.806 27.2747 285.966 26.912C286.126 26.5493 286.361 26.272 286.67 26.08C286.979 25.888 287.353 25.792 287.79 25.792C288.153 25.792 288.467 25.872 288.734 26.032C289.011 26.192 289.225 26.416 289.374 26.704C289.534 26.992 289.614 27.3333 289.614 27.728C289.614 27.8027 289.593 27.8987 289.55 28.016C289.518 28.1227 289.486 28.208 289.454 28.272L289.982 27.536H284.99V28.72H291.454C291.465 28.6773 291.47 28.608 291.47 28.512C291.481 28.416 291.486 28.3253 291.486 28.24C291.486 27.4507 291.337 26.7787 291.038 26.224C290.75 25.6587 290.334 25.2267 289.79 24.928C289.246 24.6293 288.585 24.48 287.806 24.48C287.027 24.48 286.35 24.64 285.774 24.96C285.198 25.2693 284.75 25.712 284.43 26.288C284.121 26.864 283.966 27.5413 283.966 28.32C283.966 29.088 284.121 29.76 284.43 30.336C284.739 30.912 285.177 31.36 285.742 31.68C286.318 32 286.979 32.16 287.726 32.16ZM298.671 19.52V32H300.415V19.52H298.671ZM292.575 28.32C292.575 29.12 292.741 29.808 293.071 30.384C293.402 30.96 293.839 31.4027 294.383 31.712C294.938 32.0107 295.53 32.16 296.159 32.16C296.778 32.16 297.317 32.0053 297.775 31.696C298.245 31.3867 298.613 30.944 298.879 30.368C299.157 29.792 299.295 29.1093 299.295 28.32C299.295 27.52 299.157 26.8373 298.879 26.272C298.613 25.696 298.245 25.2533 297.775 24.944C297.317 24.6347 296.778 24.48 296.159 24.48C295.53 24.48 294.938 24.6347 294.383 24.944C293.839 25.2427 293.402 25.68 293.071 26.256C292.741 26.8213 292.575 27.5093 292.575 28.32ZM294.367 28.32C294.367 27.8293 294.469 27.408 294.671 27.056C294.874 26.704 295.141 26.4373 295.471 26.256C295.813 26.0747 296.181 25.984 296.575 25.984C296.906 25.984 297.231 26.0747 297.551 26.256C297.882 26.4373 298.149 26.704 298.351 27.056C298.565 27.3973 298.671 27.8187 298.671 28.32C298.671 28.8213 298.565 29.248 298.351 29.6C298.149 29.9413 297.882 30.2027 297.551 30.384C297.231 30.5653 296.906 30.656 296.575 30.656C296.181 30.656 295.813 30.5653 295.471 30.384C295.141 30.2027 294.874 29.936 294.671 29.584C294.469 29.232 294.367 28.8107 294.367 28.32ZM306.794 28.32C306.794 29.0667 306.965 29.7333 307.306 30.32C307.658 30.896 308.133 31.3493 308.73 31.68C309.327 32 310.005 32.16 310.762 32.16C311.519 32.16 312.191 32 312.778 31.68C313.375 31.3493 313.85 30.896 314.202 30.32C314.554 29.7333 314.73 29.0667 314.73 28.32C314.73 27.5627 314.554 26.896 314.202 26.32C313.85 25.744 313.375 25.296 312.778 24.976C312.191 24.6453 311.519 24.48 310.762 24.48C310.005 24.48 309.327 24.6453 308.73 24.976C308.133 25.296 307.658 25.744 307.306 26.32C306.965 26.896 306.794 27.5627 306.794 28.32ZM308.57 28.32C308.57 27.8613 308.666 27.456 308.858 27.104C309.05 26.752 309.311 26.48 309.642 26.288C309.973 26.096 310.346 26 310.762 26C311.167 26 311.535 26.096 311.866 26.288C312.207 26.48 312.474 26.752 312.666 27.104C312.858 27.456 312.954 27.8613 312.954 28.32C312.954 28.7787 312.858 29.184 312.666 29.536C312.474 29.8773 312.207 30.1493 311.866 30.352C311.535 30.544 311.167 30.64 310.762 30.64C310.346 30.64 309.973 30.544 309.642 30.352C309.311 30.1493 309.05 29.8773 308.858 29.536C308.666 29.184 308.57 28.7787 308.57 28.32ZM321.106 27.52V32H322.882V27.328C322.882 26.4427 322.663 25.7493 322.226 25.248C321.788 24.736 321.154 24.48 320.322 24.48C319.81 24.48 319.367 24.5867 318.994 24.8C318.631 25.0133 318.332 25.3387 318.098 25.776V24.64H316.37V32H318.098V27.52C318.098 27.1893 318.167 26.9013 318.306 26.656C318.444 26.4 318.636 26.208 318.882 26.08C319.127 25.9413 319.41 25.872 319.73 25.872C320.199 25.872 320.546 26.0107 320.77 26.288C320.994 26.5653 321.106 26.976 321.106 27.52ZM328.861 24.64V26.16H333.037V24.64H328.861ZM330.093 22.08V32H331.805V22.08H330.093ZM335.957 19.52H334.229V32H335.957V19.52ZM338.965 27.52V32H340.709V27.28C340.709 26.6507 340.613 26.128 340.421 25.712C340.229 25.2853 339.941 24.9653 339.557 24.752C339.184 24.5387 338.725 24.432 338.181 24.432C337.626 24.432 337.152 24.5707 336.757 24.848C336.373 25.1253 336.074 25.4933 335.861 25.952C335.648 26.4107 335.541 26.9333 335.541 27.52H335.957C335.957 27.1893 336.026 26.9013 336.165 26.656C336.304 26.4107 336.496 26.2187 336.741 26.08C336.986 25.9413 337.269 25.872 337.589 25.872C338.069 25.872 338.416 26.0107 338.629 26.288C338.853 26.5653 338.965 26.976 338.965 27.52ZM346.101 32.16C346.954 32.16 347.685 31.9947 348.293 31.664C348.901 31.3333 349.397 30.8373 349.781 30.176L348.293 29.568C348.058 29.9627 347.765 30.256 347.413 30.448C347.061 30.64 346.65 30.736 346.181 30.736C345.733 30.736 345.349 30.64 345.029 30.448C344.72 30.256 344.485 29.9787 344.325 29.616C344.165 29.2427 344.085 28.7893 344.085 28.256C344.096 27.7227 344.181 27.2747 344.341 26.912C344.501 26.5493 344.736 26.272 345.045 26.08C345.354 25.888 345.728 25.792 346.165 25.792C346.528 25.792 346.842 25.872 347.109 26.032C347.386 26.192 347.6 26.416 347.749 26.704C347.909 26.992 347.989 27.3333 347.989 27.728C347.989 27.8027 347.968 27.8987 347.925 28.016C347.893 28.1227 347.861 28.208 347.829 28.272L348.357 27.536H343.365V28.72H349.829C349.84 28.6773 349.845 28.608 349.845 28.512C349.856 28.416 349.861 28.3253 349.861 28.24C349.861 27.4507 349.712 26.7787 349.413 26.224C349.125 25.6587 348.709 25.2267 348.165 24.928C347.621 24.6293 346.96 24.48 346.181 24.48C345.402 24.48 344.725 24.64 344.149 24.96C343.573 25.2693 343.125 25.712 342.805 26.288C342.496 26.864 342.341 27.5413 342.341 28.32C342.341 29.088 342.496 29.76 342.805 30.336C343.114 30.912 343.552 31.36 344.117 31.68C344.693 32 345.354 32.16 346.101 32.16ZM357.987 35.52V24.64H356.243V35.52H357.987ZM364.083 28.32C364.083 27.4987 363.918 26.8 363.587 26.224C363.256 25.648 362.819 25.2107 362.275 24.912C361.731 24.6027 361.139 24.448 360.499 24.448C359.87 24.448 359.32 24.608 358.851 24.928C358.392 25.2373 358.035 25.68 357.779 26.256C357.534 26.832 357.411 27.52 357.411 28.32C357.411 29.1093 357.534 29.7973 357.779 30.384C358.035 30.96 358.392 31.408 358.851 31.728C359.32 32.0373 359.87 32.192 360.499 32.192C361.139 32.192 361.731 32.0427 362.275 31.744C362.819 31.4347 363.256 30.992 363.587 30.416C363.918 29.8293 364.083 29.1307 364.083 28.32ZM362.291 28.32C362.291 28.8107 362.19 29.232 361.987 29.584C361.784 29.9253 361.512 30.1867 361.171 30.368C360.84 30.5387 360.472 30.624 360.067 30.624C359.736 30.624 359.411 30.5387 359.091 30.368C358.771 30.1867 358.504 29.9253 358.291 29.584C358.088 29.2427 357.987 28.8213 357.987 28.32C357.987 27.8187 358.088 27.3973 358.291 27.056C358.504 26.7147 358.771 26.4587 359.091 26.288C359.411 26.1067 359.736 26.016 360.067 26.016C360.472 26.016 360.84 26.1067 361.171 26.288C361.512 26.4587 361.784 26.72 361.987 27.072C362.19 27.4133 362.291 27.8293 362.291 28.32ZM367.441 24.64H365.729V32H367.441V24.64ZM369.633 26.48L370.465 25.024C370.305 24.8213 370.108 24.6827 369.873 24.608C369.638 24.5227 369.388 24.48 369.121 24.48C368.748 24.48 368.385 24.6133 368.033 24.88C367.692 25.1467 367.409 25.5093 367.185 25.968C366.972 26.416 366.865 26.9333 366.865 27.52L367.441 27.856C367.441 27.504 367.478 27.2 367.553 26.944C367.638 26.6773 367.772 26.4693 367.953 26.32C368.134 26.1707 368.369 26.096 368.657 26.096C368.87 26.096 369.046 26.128 369.185 26.192C369.324 26.256 369.473 26.352 369.633 26.48ZM371.587 21.712C371.587 22 371.694 22.2507 371.907 22.464C372.131 22.6667 372.387 22.768 372.675 22.768C372.984 22.768 373.24 22.6667 373.443 22.464C373.656 22.2507 373.763 22 373.763 21.712C373.763 21.4133 373.656 21.1627 373.443 20.96C373.24 20.7573 372.984 20.656 372.675 20.656C372.387 20.656 372.131 20.7573 371.907 20.96C371.694 21.1627 371.587 21.4133 371.587 21.712ZM371.827 24.64V32H373.523V24.64H371.827ZM380.637 27.52V32H382.413V27.328C382.413 26.4427 382.194 25.7493 381.757 25.248C381.32 24.736 380.685 24.48 379.853 24.48C379.341 24.48 378.898 24.5867 378.525 24.8C378.162 25.0133 377.864 25.3387 377.629 25.776V24.64H375.901V32H377.629V27.52C377.629 27.1893 377.698 26.9013 377.837 26.656C377.976 26.4 378.168 26.208 378.413 26.08C378.658 25.9413 378.941 25.872 379.261 25.872C379.73 25.872 380.077 26.0107 380.301 26.288C380.525 26.5653 380.637 26.976 380.637 27.52ZM383.596 24.64V26.16H387.772V24.64H383.596ZM384.828 22.08V32H386.54V22.08H384.828ZM392.163 32.16C393.017 32.16 393.747 31.9947 394.355 31.664C394.963 31.3333 395.459 30.8373 395.843 30.176L394.355 29.568C394.121 29.9627 393.827 30.256 393.475 30.448C393.123 30.64 392.713 30.736 392.243 30.736C391.795 30.736 391.411 30.64 391.091 30.448C390.782 30.256 390.547 29.9787 390.387 29.616C390.227 29.2427 390.147 28.7893 390.147 28.256C390.158 27.7227 390.243 27.2747 390.403 26.912C390.563 26.5493 390.798 26.272 391.107 26.08C391.417 25.888 391.79 25.792 392.227 25.792C392.59 25.792 392.905 25.872 393.171 26.032C393.449 26.192 393.662 26.416 393.811 26.704C393.971 26.992 394.051 27.3333 394.051 27.728C394.051 27.8027 394.03 27.8987 393.987 28.016C393.955 28.1227 393.923 28.208 393.891 28.272L394.419 27.536H389.427V28.72H395.891C395.902 28.6773 395.907 28.608 395.907 28.512C395.918 28.416 395.923 28.3253 395.923 28.24C395.923 27.4507 395.774 26.7787 395.475 26.224C395.187 25.6587 394.771 25.2267 394.227 24.928C393.683 24.6293 393.022 24.48 392.243 24.48C391.465 24.48 390.787 24.64 390.211 24.96C389.635 25.2693 389.187 25.712 388.867 26.288C388.558 26.864 388.403 27.5413 388.403 28.32C388.403 29.088 388.558 29.76 388.867 30.336C389.177 30.912 389.614 31.36 390.179 31.68C390.755 32 391.417 32.16 392.163 32.16ZM399.285 24.64H397.573V32H399.285V24.64ZM401.477 26.48L402.309 25.024C402.149 24.8213 401.951 24.6827 401.717 24.608C401.482 24.5227 401.231 24.48 400.965 24.48C400.591 24.48 400.229 24.6133 399.877 24.88C399.535 25.1467 399.253 25.5093 399.029 25.968C398.815 26.416 398.709 26.9333 398.709 27.52L399.285 27.856C399.285 27.504 399.322 27.2 399.397 26.944C399.482 26.6773 399.615 26.4693 399.797 26.32C399.978 26.1707 400.213 26.096 400.501 26.096C400.714 26.096 400.89 26.128 401.029 26.192C401.167 26.256 401.317 26.352 401.477 26.48Z" fill="#070648"/>
</svg>
